<mxfile host="app.diagrams.net" modified="2021-03-03T06:48:33.120Z" agent="5.0 (Macintosh; Intel Mac OS X 11_2_2) AppleWebKit/537.36 (KHTML, like Gecko) Chrome/88.0.4324.192 Safari/537.36" etag="gJ4DmX26x8RIlYSsyIGG" version="14.4.3" type="github">
  <diagram id="WTPLXDa7ydIqSZCXGqnX" name="Page-1">
    <mxGraphModel dx="1159" dy="796" grid="1" gridSize="10" guides="1" tooltips="1" connect="1" arrows="1" fold="1" page="1" pageScale="1" pageWidth="827" pageHeight="1169" math="0" shadow="0">
      <root>
        <mxCell id="0" />
        <mxCell id="1" parent="0" />
        <mxCell id="xnPB4vikbU-PJBRAjYCm-58" value="" style="rounded=0;whiteSpace=wrap;html=1;shadow=0;fillColor=#FFFFFF;" parent="1" vertex="1">
          <mxGeometry x="520" y="970" width="270" height="175" as="geometry" />
        </mxCell>
        <mxCell id="xnPB4vikbU-PJBRAjYCm-2" value="" style="rounded=1;whiteSpace=wrap;html=1;fillColor=#E6D0DE;arcSize=5;" parent="1" vertex="1">
          <mxGeometry x="50" y="80" width="260" height="360" as="geometry" />
        </mxCell>
        <mxCell id="xnPB4vikbU-PJBRAjYCm-7" value="startActivityForResult" style="edgeStyle=orthogonalEdgeStyle;rounded=0;orthogonalLoop=1;jettySize=auto;html=1;exitX=0.5;exitY=1;exitDx=0;exitDy=0;entryX=0.5;entryY=0;entryDx=0;entryDy=0;" parent="1" source="xnPB4vikbU-PJBRAjYCm-3" target="xnPB4vikbU-PJBRAjYCm-6" edge="1">
          <mxGeometry relative="1" as="geometry" />
        </mxCell>
        <mxCell id="xnPB4vikbU-PJBRAjYCm-3" value="Activity" style="rounded=1;whiteSpace=wrap;html=1;" parent="1" vertex="1">
          <mxGeometry x="80" y="130" width="200" height="40" as="geometry" />
        </mxCell>
        <mxCell id="xnPB4vikbU-PJBRAjYCm-5" value="&lt;font style=&quot;font-size: 18px&quot;&gt;Launcher 进程&lt;/font&gt;" style="text;html=1;strokeColor=none;fillColor=none;align=center;verticalAlign=middle;whiteSpace=wrap;rounded=0;" parent="1" vertex="1">
          <mxGeometry x="112.5" y="90" width="135" height="30" as="geometry" />
        </mxCell>
        <mxCell id="xnPB4vikbU-PJBRAjYCm-10" value="execStartActivity" style="edgeStyle=orthogonalEdgeStyle;rounded=0;orthogonalLoop=1;jettySize=auto;html=1;" parent="1" source="xnPB4vikbU-PJBRAjYCm-6" target="xnPB4vikbU-PJBRAjYCm-8" edge="1">
          <mxGeometry relative="1" as="geometry" />
        </mxCell>
        <mxCell id="xnPB4vikbU-PJBRAjYCm-6" value="&lt;span&gt;Instrumentation&lt;/span&gt;" style="rounded=1;whiteSpace=wrap;html=1;fillColor=#FFFFFF;" parent="1" vertex="1">
          <mxGeometry x="80" y="250" width="200" height="40" as="geometry" />
        </mxCell>
        <mxCell id="xnPB4vikbU-PJBRAjYCm-8" value="&lt;span style=&quot;color: rgb(36 , 41 , 46) ; font-family: , , &amp;#34;segoe ui&amp;#34; , &amp;#34;helvetica&amp;#34; , &amp;#34;arial&amp;#34; , sans-serif , &amp;#34;apple color emoji&amp;#34; , &amp;#34;segoe ui emoji&amp;#34; ; font-size: 14px ; text-align: left ; background-color: rgb(255 , 255 , 255)&quot;&gt;ActivityManager.getService()&lt;/span&gt;" style="rounded=1;whiteSpace=wrap;html=1;fillColor=#FFFFFF;" parent="1" vertex="1">
          <mxGeometry x="80" y="360" width="200" height="40" as="geometry" />
        </mxCell>
        <mxCell id="xnPB4vikbU-PJBRAjYCm-9" style="edgeStyle=orthogonalEdgeStyle;rounded=0;orthogonalLoop=1;jettySize=auto;html=1;exitX=0.5;exitY=1;exitDx=0;exitDy=0;" parent="1" source="xnPB4vikbU-PJBRAjYCm-6" target="xnPB4vikbU-PJBRAjYCm-6" edge="1">
          <mxGeometry relative="1" as="geometry" />
        </mxCell>
        <mxCell id="xnPB4vikbU-PJBRAjYCm-11" value="" style="rounded=1;whiteSpace=wrap;html=1;fillColor=#D4E1F5;arcSize=7;shadow=0;" parent="1" vertex="1">
          <mxGeometry x="450" y="80" width="280" height="360" as="geometry" />
        </mxCell>
        <mxCell id="xnPB4vikbU-PJBRAjYCm-15" value="&lt;font style=&quot;font-size: 18px&quot;&gt;system_server 进程&lt;/font&gt;" style="text;html=1;align=center;verticalAlign=middle;resizable=0;points=[];autosize=1;" parent="1" vertex="1">
          <mxGeometry x="505" y="95" width="170" height="20" as="geometry" />
        </mxCell>
        <mxCell id="xnPB4vikbU-PJBRAjYCm-19" value="" style="edgeStyle=orthogonalEdgeStyle;rounded=0;orthogonalLoop=1;jettySize=auto;html=1;" parent="1" source="xnPB4vikbU-PJBRAjYCm-16" target="xnPB4vikbU-PJBRAjYCm-17" edge="1">
          <mxGeometry relative="1" as="geometry" />
        </mxCell>
        <mxCell id="xnPB4vikbU-PJBRAjYCm-20" value="startActivity" style="edgeLabel;html=1;align=center;verticalAlign=middle;resizable=0;points=[];" parent="xnPB4vikbU-PJBRAjYCm-19" vertex="1" connectable="0">
          <mxGeometry x="0.1111" relative="1" as="geometry">
            <mxPoint as="offset" />
          </mxGeometry>
        </mxCell>
        <mxCell id="xnPB4vikbU-PJBRAjYCm-16" value="&lt;p&gt;&lt;span style=&quot;color: rgb(36 , 41 , 46) ; font-family: , , &amp;#34;segoe ui&amp;#34; , &amp;#34;helvetica&amp;#34; , &amp;#34;arial&amp;#34; , sans-serif , &amp;#34;apple color emoji&amp;#34; , &amp;#34;segoe ui emoji&amp;#34; ; font-size: 14px ; text-align: left ; background-color: rgb(255 , 255 , 255)&quot;&gt;ActivityManagerService&lt;/span&gt;&lt;/p&gt;" style="rounded=1;whiteSpace=wrap;html=1;fillColor=#FFFFFF;" parent="1" vertex="1">
          <mxGeometry x="500" y="130" width="180" height="40" as="geometry" />
        </mxCell>
        <mxCell id="xnPB4vikbU-PJBRAjYCm-21" value="&lt;span style=&quot;font-size: 14px&quot;&gt;&lt;font color=&quot;#ff0000&quot;&gt;5. realstartActivityLocked&lt;/font&gt;&lt;/span&gt;" style="edgeStyle=orthogonalEdgeStyle;rounded=0;orthogonalLoop=1;jettySize=auto;html=1;" parent="1" source="xnPB4vikbU-PJBRAjYCm-17" target="xnPB4vikbU-PJBRAjYCm-18" edge="1">
          <mxGeometry relative="1" as="geometry" />
        </mxCell>
        <mxCell id="xnPB4vikbU-PJBRAjYCm-17" value="&lt;span style=&quot;color: rgb(36 , 41 , 46) ; font-family: , , &amp;#34;segoe ui&amp;#34; , &amp;#34;helvetica&amp;#34; , &amp;#34;arial&amp;#34; , sans-serif , &amp;#34;apple color emoji&amp;#34; , &amp;#34;segoe ui emoji&amp;#34; ; font-size: 14px ; text-align: left ; background-color: rgb(255 , 255 , 255)&quot;&gt;ActivityStackSupervisor&lt;/span&gt;" style="rounded=1;whiteSpace=wrap;html=1;fillColor=#FFFFFF;" parent="1" vertex="1">
          <mxGeometry x="500" y="250" width="180" height="40" as="geometry" />
        </mxCell>
        <mxCell id="xnPB4vikbU-PJBRAjYCm-18" value="IApplicationThread" style="rounded=1;whiteSpace=wrap;html=1;fillColor=#FFFFFF;" parent="1" vertex="1">
          <mxGeometry x="500" y="360" width="180" height="40" as="geometry" />
        </mxCell>
        <mxCell id="xnPB4vikbU-PJBRAjYCm-22" value="&lt;font style=&quot;font-size: 18px&quot;&gt;Zygote 进程&lt;/font&gt;" style="rounded=1;whiteSpace=wrap;html=1;fillColor=#FFE599;" parent="1" vertex="1">
          <mxGeometry x="460" y="830" width="280" height="60" as="geometry" />
        </mxCell>
        <mxCell id="xnPB4vikbU-PJBRAjYCm-24" value="" style="rounded=1;whiteSpace=wrap;html=1;fillColor=#D5E8D4;arcSize=6;" parent="1" vertex="1">
          <mxGeometry x="50" y="580" width="260" height="550" as="geometry" />
        </mxCell>
        <mxCell id="xnPB4vikbU-PJBRAjYCm-25" value="&lt;font style=&quot;font-size: 18px&quot;&gt;&lt;font style=&quot;font-size: 18px&quot;&gt;App 进&lt;/font&gt;程&lt;/font&gt;" style="text;html=1;strokeColor=none;fillColor=none;align=center;verticalAlign=middle;whiteSpace=wrap;rounded=0;" parent="1" vertex="1">
          <mxGeometry x="135" y="600" width="90" height="20" as="geometry" />
        </mxCell>
        <mxCell id="xnPB4vikbU-PJBRAjYCm-26" style="edgeStyle=orthogonalEdgeStyle;orthogonalLoop=1;jettySize=auto;html=1;entryX=0;entryY=0.5;entryDx=0;entryDy=0;fillColor=#d80073;strokeColor=#A50040;strokeWidth=3;sketch=0;rounded=1;" parent="1" source="xnPB4vikbU-PJBRAjYCm-8" target="xnPB4vikbU-PJBRAjYCm-16" edge="1">
          <mxGeometry relative="1" as="geometry">
            <Array as="points">
              <mxPoint x="390" y="380" />
              <mxPoint x="390" y="150" />
            </Array>
          </mxGeometry>
        </mxCell>
        <mxCell id="xnPB4vikbU-PJBRAjYCm-27" value="1. 发送 startActivity" style="edgeLabel;html=1;align=center;verticalAlign=middle;resizable=0;points=[];labelBorderColor=#000000;fontColor=#FF0000;" parent="xnPB4vikbU-PJBRAjYCm-26" vertex="1" connectable="0">
          <mxGeometry x="0.0103" y="1" relative="1" as="geometry">
            <mxPoint x="1" y="7" as="offset" />
          </mxGeometry>
        </mxCell>
        <mxCell id="xnPB4vikbU-PJBRAjYCm-28" style="edgeStyle=orthogonalEdgeStyle;sketch=0;orthogonalLoop=1;jettySize=auto;html=1;exitX=1;exitY=0.5;exitDx=0;exitDy=0;entryX=1;entryY=0.5;entryDx=0;entryDy=0;strokeWidth=3;rounded=1;fillColor=#1ba1e2;strokeColor=#006EAF;" parent="1" source="xnPB4vikbU-PJBRAjYCm-16" target="xnPB4vikbU-PJBRAjYCm-22" edge="1">
          <mxGeometry relative="1" as="geometry">
            <Array as="points">
              <mxPoint x="780" y="150" />
              <mxPoint x="780" y="860" />
            </Array>
          </mxGeometry>
        </mxCell>
        <mxCell id="xnPB4vikbU-PJBRAjYCm-29" value="2. 发送&lt;br&gt;创建进程的请求" style="edgeLabel;html=1;align=center;verticalAlign=middle;resizable=0;points=[];labelBorderColor=#000000;fontColor=#FF0000;" parent="xnPB4vikbU-PJBRAjYCm-28" vertex="1" connectable="0">
          <mxGeometry x="0.1085" y="1" relative="1" as="geometry">
            <mxPoint as="offset" />
          </mxGeometry>
        </mxCell>
        <mxCell id="xnPB4vikbU-PJBRAjYCm-34" style="edgeStyle=orthogonalEdgeStyle;rounded=1;sketch=0;orthogonalLoop=1;jettySize=auto;html=1;entryX=0;entryY=0.75;entryDx=0;entryDy=0;strokeWidth=3;fillColor=#d80073;strokeColor=#A50040;" parent="1" source="xnPB4vikbU-PJBRAjYCm-31" target="xnPB4vikbU-PJBRAjYCm-16" edge="1">
          <mxGeometry relative="1" as="geometry">
            <Array as="points">
              <mxPoint x="30" y="1065" />
              <mxPoint x="30" y="510" />
              <mxPoint x="420" y="510" />
              <mxPoint x="420" y="160" />
            </Array>
          </mxGeometry>
        </mxCell>
        <mxCell id="xnPB4vikbU-PJBRAjYCm-36" value="4. attachApplication" style="edgeLabel;html=1;align=center;verticalAlign=middle;resizable=0;points=[];labelBorderColor=#000000;fontColor=#FF0000;" parent="xnPB4vikbU-PJBRAjYCm-34" vertex="1" connectable="0">
          <mxGeometry x="-0.1115" y="-1" relative="1" as="geometry">
            <mxPoint x="127" y="-1" as="offset" />
          </mxGeometry>
        </mxCell>
        <mxCell id="xnPB4vikbU-PJBRAjYCm-31" value="IApplicationThread" style="rounded=1;whiteSpace=wrap;html=1;shadow=0;fillColor=#FFFFFF;" parent="1" vertex="1">
          <mxGeometry x="80" y="1040" width="200" height="50" as="geometry" />
        </mxCell>
        <mxCell id="xnPB4vikbU-PJBRAjYCm-32" style="edgeStyle=orthogonalEdgeStyle;rounded=1;sketch=0;orthogonalLoop=1;jettySize=auto;html=1;entryX=1;entryY=0.5;entryDx=0;entryDy=0;strokeWidth=3;fillColor=#1ba1e2;strokeColor=#006EAF;" parent="1" source="xnPB4vikbU-PJBRAjYCm-22" target="xnPB4vikbU-PJBRAjYCm-31" edge="1">
          <mxGeometry relative="1" as="geometry" />
        </mxCell>
        <mxCell id="xnPB4vikbU-PJBRAjYCm-33" value="3. fork 新进程" style="edgeLabel;html=1;align=center;verticalAlign=middle;resizable=0;points=[];labelBorderColor=#000000;fontColor=#FF0000;" parent="xnPB4vikbU-PJBRAjYCm-32" vertex="1" connectable="0">
          <mxGeometry x="-0.0255" relative="1" as="geometry">
            <mxPoint as="offset" />
          </mxGeometry>
        </mxCell>
        <mxCell id="xnPB4vikbU-PJBRAjYCm-44" value="" style="edgeStyle=orthogonalEdgeStyle;rounded=0;sketch=0;orthogonalLoop=1;jettySize=auto;html=1;strokeWidth=3;fillColor=#008a00;strokeColor=#005700;" parent="1" source="xnPB4vikbU-PJBRAjYCm-38" target="xnPB4vikbU-PJBRAjYCm-41" edge="1">
          <mxGeometry relative="1" as="geometry" />
        </mxCell>
        <mxCell id="xnPB4vikbU-PJBRAjYCm-45" value="&lt;span style=&quot;font-size: 14px; text-align: left;&quot;&gt;7. H.BIND_APPLICATION&amp;nbsp;&lt;br&gt;&lt;/span&gt;" style="edgeLabel;html=1;align=center;verticalAlign=middle;resizable=0;points=[];labelBorderColor=#000000;fontColor=#FF0000;" parent="xnPB4vikbU-PJBRAjYCm-44" vertex="1" connectable="0">
          <mxGeometry x="-0.1333" y="-1" relative="1" as="geometry">
            <mxPoint as="offset" />
          </mxGeometry>
        </mxCell>
        <mxCell id="xnPB4vikbU-PJBRAjYCm-38" value="ApplicationThread" style="rounded=1;whiteSpace=wrap;html=1;shadow=0;fillColor=#FFFFFF;" parent="1" vertex="1">
          <mxGeometry x="80" y="640" width="200" height="50" as="geometry" />
        </mxCell>
        <mxCell id="xnPB4vikbU-PJBRAjYCm-39" style="edgeStyle=orthogonalEdgeStyle;rounded=1;sketch=0;orthogonalLoop=1;jettySize=auto;html=1;entryX=1;entryY=0.5;entryDx=0;entryDy=0;strokeWidth=3;fillColor=#d80073;strokeColor=#A50040;" parent="1" source="xnPB4vikbU-PJBRAjYCm-18" target="xnPB4vikbU-PJBRAjYCm-38" edge="1">
          <mxGeometry relative="1" as="geometry">
            <Array as="points">
              <mxPoint x="590" y="665" />
            </Array>
          </mxGeometry>
        </mxCell>
        <mxCell id="xnPB4vikbU-PJBRAjYCm-40" value="6. scheduleLaunchActivity" style="edgeLabel;html=1;align=center;verticalAlign=middle;resizable=0;points=[];labelBorderColor=#000000;fontColor=#FF0000;" parent="xnPB4vikbU-PJBRAjYCm-39" vertex="1" connectable="0">
          <mxGeometry x="0.4574" y="-3" relative="1" as="geometry">
            <mxPoint x="14" y="3" as="offset" />
          </mxGeometry>
        </mxCell>
        <mxCell id="xnPB4vikbU-PJBRAjYCm-47" value="&lt;span style=&quot;font-size: 14px ; text-align: left&quot;&gt;&lt;font color=&quot;#ff0000&quot;&gt;8. performLaunchActivity() &lt;br&gt;反射创建目标 Activity&lt;/font&gt;&lt;br&gt;&lt;/span&gt;" style="edgeStyle=orthogonalEdgeStyle;rounded=0;sketch=0;orthogonalLoop=1;jettySize=auto;html=1;strokeWidth=1;" parent="1" source="xnPB4vikbU-PJBRAjYCm-41" target="xnPB4vikbU-PJBRAjYCm-46" edge="1">
          <mxGeometry x="-0.3333" relative="1" as="geometry">
            <mxPoint as="offset" />
          </mxGeometry>
        </mxCell>
        <mxCell id="xnPB4vikbU-PJBRAjYCm-48" value="9.&amp;nbsp;&lt;span style=&quot;font-size: 14px; text-align: left;&quot;&gt;Activity.attach() 创建&lt;br&gt;Window 并和 Activity 关联&lt;br&gt;&lt;/span&gt;" style="edgeLabel;html=1;align=center;verticalAlign=middle;resizable=0;points=[];labelBorderColor=#000000;fontColor=#FF0000;" parent="xnPB4vikbU-PJBRAjYCm-47" vertex="1" connectable="0">
          <mxGeometry x="0.5467" y="1" relative="1" as="geometry">
            <mxPoint x="-1" y="-16" as="offset" />
          </mxGeometry>
        </mxCell>
        <mxCell id="xnPB4vikbU-PJBRAjYCm-41" value="ActivityThread" style="rounded=1;whiteSpace=wrap;html=1;shadow=0;fillColor=#FFFFFF;" parent="1" vertex="1">
          <mxGeometry x="80" y="750" width="200" height="50" as="geometry" />
        </mxCell>
        <mxCell id="xnPB4vikbU-PJBRAjYCm-46" value="Activity.OnCreate()" style="rounded=1;whiteSpace=wrap;html=1;shadow=0;fillColor=#FFFFFF;" parent="1" vertex="1">
          <mxGeometry x="80" y="950" width="200" height="50" as="geometry" />
        </mxCell>
        <mxCell id="xnPB4vikbU-PJBRAjYCm-52" value="" style="endArrow=classic;html=1;strokeWidth=3;fillColor=#d80073;strokeColor=#A50040;" parent="1" edge="1">
          <mxGeometry width="50" height="50" relative="1" as="geometry">
            <mxPoint x="575" y="1017.5" as="sourcePoint" />
            <mxPoint x="665" y="1017.5" as="targetPoint" />
          </mxGeometry>
        </mxCell>
        <mxCell id="xnPB4vikbU-PJBRAjYCm-53" value="" style="endArrow=classic;html=1;strokeWidth=3;fillColor=#1ba1e2;strokeColor=#006EAF;" parent="1" edge="1">
          <mxGeometry width="50" height="50" relative="1" as="geometry">
            <mxPoint x="575" y="1057.5" as="sourcePoint" />
            <mxPoint x="665" y="1057.5" as="targetPoint" />
          </mxGeometry>
        </mxCell>
        <mxCell id="xnPB4vikbU-PJBRAjYCm-54" value="" style="endArrow=classic;html=1;strokeWidth=3;fillColor=#008a00;strokeColor=#005700;" parent="1" edge="1">
          <mxGeometry width="50" height="50" relative="1" as="geometry">
            <mxPoint x="575" y="1097.5" as="sourcePoint" />
            <mxPoint x="665" y="1097.5" as="targetPoint" />
          </mxGeometry>
        </mxCell>
        <mxCell id="xnPB4vikbU-PJBRAjYCm-55" value="IBinder IPC" style="text;html=1;strokeColor=none;fillColor=none;align=center;verticalAlign=middle;whiteSpace=wrap;rounded=0;shadow=0;" parent="1" vertex="1">
          <mxGeometry x="675" y="1007.5" width="70" height="20" as="geometry" />
        </mxCell>
        <mxCell id="xnPB4vikbU-PJBRAjYCm-56" value="Socket" style="text;html=1;strokeColor=none;fillColor=none;align=center;verticalAlign=middle;whiteSpace=wrap;rounded=0;shadow=0;" parent="1" vertex="1">
          <mxGeometry x="670" y="1047.5" width="60" height="20" as="geometry" />
        </mxCell>
        <mxCell id="xnPB4vikbU-PJBRAjYCm-57" value="Handler" style="text;html=1;strokeColor=none;fillColor=none;align=center;verticalAlign=middle;whiteSpace=wrap;rounded=0;shadow=0;" parent="1" vertex="1">
          <mxGeometry x="680" y="1087.5" width="40" height="20" as="geometry" />
        </mxCell>
      </root>
    </mxGraphModel>
  </diagram>
</mxfile>
